<svg xmlns="http://www.w3.org/2000/svg" viewBox="0 0 1600 900" role="img" aria-label="Apex innovation lab">
  <defs>
    <linearGradient id="bg" x1="0" x2="1" y1="0" y2="1">
      <stop offset="0%" stop-color="#ddeeff"/>
      <stop offset="100%" stop-color="#eef6ff"/>
    </linearGradient>
  </defs>
  <rect width="1600" height="900" fill="url(#bg)"/>
  <rect x="130" y="120" width="1340" height="650" rx="36" fill="#0c2136"/>
  <rect x="180" y="175" width="1240" height="220" rx="26" fill="#123b5f"/>
  <rect x="220" y="220" width="270" height="130" rx="20" fill="#eef6ff" opacity="0.92"/>
  <rect x="530" y="220" width="270" height="130" rx="20" fill="#eef6ff" opacity="0.92"/>
  <rect x="840" y="220" width="270" height="130" rx="20" fill="#eef6ff" opacity="0.92"/>
  <rect x="1150" y="220" width="220" height="130" rx="20" fill="#eef6ff" opacity="0.92"/>
  <rect x="180" y="450" width="540" height="260" rx="26" fill="#f9fbff"/>
  <rect x="760" y="450" width="660" height="260" rx="26" fill="#f9fbff"/>
  <circle cx="450" cy="580" r="72" fill="#d7b76f" opacity="0.45"/>
  <circle cx="450" cy="580" r="44" fill="#c6a255" opacity="0.85"/>
  <path d="M990 520h210M990 570h310M990 620h240" stroke="#c7d9ef" stroke-width="22" stroke-linecap="round"/>
  <path d="M280 760h1040" stroke="#13334f" stroke-width="24" stroke-linecap="round" opacity="0.16"/>
</svg>
