<svg xmlns="http://www.w3.org/2000/svg" viewBox="0 0 1600 900" role="img" aria-label="Apex library atrium">
  <defs>
    <linearGradient id="bg" x1="0" x2="1" y1="0" y2="1">
      <stop offset="0%" stop-color="#f4f0e7"/>
      <stop offset="100%" stop-color="#fffdf8"/>
    </linearGradient>
  </defs>
  <rect width="1600" height="900" fill="url(#bg)"/>
  <rect x="110" y="80" width="1380" height="700" rx="34" fill="#fff"/>
  <rect x="170" y="140" width="1260" height="150" rx="24" fill="#0f4f80"/>
  <rect x="220" y="190" width="500" height="46" rx="18" fill="#f7fbff" opacity="0.95"/>
  <rect x="170" y="340" width="280" height="320" rx="18" fill="#f0f5fb"/>
  <rect x="500" y="340" width="280" height="320" rx="18" fill="#f0f5fb"/>
  <rect x="830" y="340" width="280" height="320" rx="18" fill="#f0f5fb"/>
  <rect x="1160" y="340" width="270" height="320" rx="18" fill="#f0f5fb"/>
  <rect x="225" y="395" width="170" height="18" rx="9" fill="#c7d9ef"/>
  <rect x="225" y="440" width="170" height="18" rx="9" fill="#c7d9ef"/>
  <rect x="225" y="485" width="170" height="18" rx="9" fill="#c7d9ef"/>
  <rect x="555" y="395" width="170" height="18" rx="9" fill="#c7d9ef"/>
  <rect x="555" y="440" width="170" height="18" rx="9" fill="#c7d9ef"/>
  <rect x="555" y="485" width="170" height="18" rx="9" fill="#c7d9ef"/>
  <rect x="885" y="395" width="170" height="18" rx="9" fill="#c7d9ef"/>
  <rect x="885" y="440" width="170" height="18" rx="9" fill="#c7d9ef"/>
  <rect x="885" y="485" width="170" height="18" rx="9" fill="#c7d9ef"/>
  <circle cx="1300" cy="470" r="78" fill="#d8b66a" opacity="0.38"/>
  <circle cx="1300" cy="470" r="48" fill="#c6a256" opacity="0.7"/>
</svg>
